<svg width="18" height="18" viewBox="221 44 18 18" version="1.1" xmlns="http://www.w3.org/2000/svg" xmlns:xlink="http://www.w3.org/1999/xlink">
<g id="Search" stroke="none" stroke-width="1" fill="none" fill-rule="evenodd" transform="translate(221.000000, 44.000000)">
<path d="M16.5322417,16.5322417 C15.9085639,17.1559194 14.8981422,17.1559194 14.2744645,16.5322417 L11.4567585,13.7145357 C10.2986516,14.4572116 8.92911048,14.9002672 7.45013359,14.9002672 C3.33619787,14.9002672 1.77635684e-15,11.5651318 1.77635684e-15,7.45013359 C1.77635684e-15,3.33513539 3.33619787,0 7.45013359,0 C11.5651318,0 14.9002672,3.33513539 14.9002672,7.45013359 C14.9002672,8.928048 14.4572116,10.2975891 13.7145357,11.4567585 L16.5322417,14.2744645 C17.1559194,14.8981422 17.1559194,15.9085639 16.5322417,16.5322417 L16.5322417,16.5322417 Z M7.45013359,2.12815425 C4.51130451,2.12815425 2.12815425,4.51024203 2.12815425,7.45013359 C2.12815425,10.3900252 4.51130451,12.7721129 7.45013359,12.7721129 C10.3889627,12.7721129 12.7721129,10.3900252 12.7721129,7.45013359 C12.7721129,4.51024203 10.3900252,2.12815425 7.45013359,2.12815425 L7.45013359,2.12815425 Z" id="Shape" fill="#B5B5B5" fill-rule="nonzero"></path>
<path d="M16.5322417,16.5322417 C15.9085639,17.1559194 14.8981422,17.1559194 14.2744645,16.5322417 L11.4567585,13.7145357 C10.2986516,14.4572116 8.92911048,14.9002672 7.45013359,14.9002672 C3.33619787,14.9002672 1.77635684e-15,11.5651318 1.77635684e-15,7.45013359 C1.77635684e-15,3.33513539 3.33619787,0 7.45013359,0 C11.5651318,0 14.9002672,3.33513539 14.9002672,7.45013359 C14.9002672,8.928048 14.4572116,10.2975891 13.7145357,11.4567585 L16.5322417,14.2744645 C17.1559194,14.8981422 17.1559194,15.9085639 16.5322417,16.5322417 L16.5322417,16.5322417 Z M7.45013359,2.12815425 C4.51130451,2.12815425 2.12815425,4.51024203 2.12815425,7.45013359 C2.12815425,10.3900252 4.51130451,12.7721129 7.45013359,12.7721129 C10.3889627,12.7721129 12.7721129,10.3900252 12.7721129,7.45013359 C12.7721129,4.51024203 10.3900252,2.12815425 7.45013359,2.12815425 L7.45013359,2.12815425 Z" id="Shape-Copy" fill="#B5B5B5" fill-rule="nonzero"></path>
</g>
</svg>